<?xml version="1.0" encoding="utf-8"?>
<!-- Generator: Adobe Illustrator 16.0.0, SVG Export Plug-In . SVG Version: 6.00 Build 0)  -->
<!DOCTYPE svg PUBLIC "-//W3C//DTD SVG 1.1//EN" "http://www.w3.org/Graphics/SVG/1.1/DTD/svg11.dtd">
<svg version="1.1" id="Layer_1" xmlns="http://www.w3.org/2000/svg" xmlns:xlink="http://www.w3.org/1999/xlink" x="0px" y="0px"
	 width="345px" height="89.466px" viewBox="0 0 345 89.466" enable-background="new 0 0 345 89.466" xml:space="preserve">
<g>
	<g>
		<path fill="#1EA6BC" d="M115.68,39.479C88.793,61.339,49.795,82.98,15.253,74.999c10.903,7.065,36.134,12.608,41.406,13.524
			c23.108,4.32,59.47-6.684,80.917-23.487c8.61-6.944,19.738-15.858,17.394-27.165c-5.482-10.752-10.389-19.289-15.866-30.04
			C134.858,20.474,127.976,28.246,115.68,39.479"/>
		<path fill="#DB6639" d="M33.756,17.174c-4.733,0.251-9.503,1.094-14.195,2.759C7.131,24.741-0.657,34.552,0.348,51.274
			c1.239,13.381,7.429,20.257,14.94,23.732c6.421,1.479,12.996,1.934,19.616,1.558C14.903,58.589,21.847,28.522,33.756,17.174z"/>
		<path fill="#508455" d="M74.052,25.425c14.98,6.603,31.104,10.458,45.941,10.036c9.615-9.182,15.356-16.509,19.078-27.538
			c-3.065-4.787-7.995-7.648-12.163-7.648c-0.305,0-0.606,0.017-0.902,0.046C112.431,2.43,98.894,8.471,85.269,9.648
			C74.119,8.928,65.274,2.35,54.511,6.07c-12.898,4.289-25.018,9.863-35.124,13.922C39.112,12.896,60.281,20.4,74.052,25.425z"/>
	</g>
	<g>
		<g>
			<path fill="#4E5152" d="M197.101,11.839l-0.589,7.07c2.153-5.065,5.277-7.748,9.367-8.048v18.927
				c-2.718,0-4.714,0.405-5.986,1.218c-1.274,0.812-2.06,1.936-2.352,3.384c-0.296,1.445-0.44,4.778-0.44,9.993v21.237h-14.845
				V11.839H197.101z"/>
			<path fill="#4E5152" d="M252.34,39.684h-19.217v11.628c0,2.434,0.161,3.999,0.479,4.704c0.316,0.7,0.929,1.055,1.835,1.055
				c1.126,0,1.88-0.466,2.26-1.401c0.381-0.933,0.57-2.734,0.57-5.409v-7.095h14.072v3.974c0,3.324-0.191,5.876-0.569,7.661
				c-0.381,1.779-1.269,3.687-2.665,5.716c-1.397,2.023-3.166,3.544-5.309,4.562c-2.145,1.011-4.833,1.517-8.064,1.517
				c-3.137,0-5.904-0.502-8.304-1.5c-2.397-1.001-4.268-2.372-5.604-4.116c-1.336-1.739-2.259-3.657-2.773-5.753
				s-0.771-5.142-0.771-9.142V30.398c0-4.702,0.575-8.409,1.728-11.122c1.15-2.716,3.037-4.8,5.659-6.244
				c2.619-1.445,5.632-2.171,9.037-2.171c4.163,0,7.601,0.874,10.306,2.617c2.705,1.744,4.604,4.055,5.693,6.928
				c1.09,2.878,1.637,6.931,1.637,12.144V39.684z M237.459,30.925v-3.934c0-2.778-0.133-4.576-0.405-5.389
				c-0.269-0.809-0.819-1.211-1.653-1.211c-1.029,0-1.664,0.342-1.908,1.032c-0.247,0.686-0.369,2.545-0.369,5.568v3.934H237.459z"
				/>
			<path fill="#4E5152" d="M298.429,0v65.621h-14.844v-3.9c-1.421,1.623-2.914,2.843-4.481,3.653c-1.57,0.812-3.211,1.22-4.927,1.22
				c-2.3,0-4.299-0.668-5.984-2.006c-1.694-1.337-2.777-2.885-3.253-4.64c-0.479-1.758-0.719-4.623-0.719-8.595V26.184
				c0-4.134,0.239-7.067,0.719-8.794c0.476-1.729,1.571-3.25,3.288-4.561c1.714-1.311,3.759-1.967,6.134-1.967
				c1.835,0,3.521,0.369,5.053,1.099c1.529,0.733,2.921,1.828,4.171,3.289V0H298.429z M283.585,25.372
				c0-1.968-0.155-3.294-0.46-3.969c-0.308-0.678-0.913-1.011-1.82-1.011c-0.88,0-1.475,0.299-1.779,0.907
				c-0.306,0.608-0.457,1.969-0.457,4.073v26.345c0,2.19,0.145,3.63,0.436,4.316c0.297,0.689,0.86,1.037,1.693,1.037
				c0.956,0,1.591-0.391,1.908-1.16c0.317-0.766,0.479-2.65,0.479-5.65V25.372z"/>
			<path fill="#4E5152" d="M345.261,39.684h-19.213v11.628c0,2.434,0.157,3.999,0.477,4.704c0.317,0.7,0.93,1.055,1.834,1.055
				c1.126,0,1.881-0.466,2.263-1.401c0.377-0.933,0.568-2.734,0.568-5.409v-7.095h14.071v3.974c0,3.324-0.19,5.876-0.569,7.661
				c-0.378,1.779-1.269,3.687-2.666,5.716c-1.394,2.023-3.166,3.544-5.308,4.562c-2.144,1.011-4.833,1.517-8.063,1.517
				c-3.136,0-5.903-0.502-8.306-1.5c-2.4-1.001-4.265-2.372-5.599-4.116c-1.337-1.739-2.26-3.657-2.775-5.753
				c-0.517-2.096-0.771-5.142-0.771-9.142V30.398c0-4.702,0.574-8.409,1.727-11.122c1.15-2.716,3.035-4.8,5.659-6.244
				c2.619-1.445,5.632-2.171,9.039-2.171c4.16,0,7.595,0.874,10.303,2.617c2.705,1.744,4.604,4.055,5.694,6.928
				c1.091,2.878,1.636,6.931,1.636,12.144V39.684z M330.381,30.925v-3.934c0-2.778-0.135-4.576-0.405-5.389
				c-0.268-0.809-0.821-1.211-1.652-1.211c-1.026,0-1.667,0.342-1.911,1.032c-0.243,0.686-0.364,2.545-0.364,5.568v3.934H330.381z"
				/>
			<path fill="#DB6639" d="M197.589,89.19c-2.406,0-4.163-1.604-4.163-3.941V74.796h2.769v10.412c0,0.949,0.497,1.476,1.395,1.476
				c0.916,0,1.432-0.526,1.432-1.476V74.796h2.657v10.453C201.678,87.587,200.014,89.19,197.589,89.19"/>
			<path fill="#DB6639" d="M209.012,89.19c-2.501,0-4.087-1.581-4.087-3.982v-0.716h2.502v0.458c0,1.184,0.536,1.817,1.53,1.817
				c0.973,0,1.45-0.61,1.45-1.582c0-1.011-0.724-1.622-2.198-2.466c-1.527-0.906-3.151-2.022-3.151-4.173s1.394-4.086,3.993-4.086
				c2.331,0,3.878,1.726,3.878,3.959v0.57h-2.465v-0.443c0-0.949-0.477-1.687-1.432-1.687c-0.805,0-1.318,0.549-1.318,1.391
				c0,0.992,0.726,1.538,2.349,2.469c1.777,1.073,3.018,2.17,3.018,4.216C213.08,87.211,211.554,89.19,209.012,89.19"/>
			<path fill="#DB6639" d="M186.126,89.19c-2.502,0-4.087-1.581-4.087-3.982v-0.716h2.502v0.458c0,1.184,0.536,1.817,1.527,1.817
				c0.975,0,1.453-0.61,1.453-1.582c0-1.011-0.725-1.622-2.198-2.466c-1.527-0.906-3.151-2.022-3.151-4.173s1.395-4.086,3.993-4.086
				c2.329,0,3.877,1.726,3.877,3.959v0.57h-2.463v-0.443c0-0.949-0.478-1.687-1.433-1.687c-0.803,0-1.319,0.549-1.319,1.391
				c0,0.992,0.727,1.538,2.351,2.469c1.775,1.073,3.019,2.17,3.019,4.216C190.196,87.211,188.666,89.19,186.126,89.19"/>
			<polygon fill="#DB6639" points="220.913,77.366 220.913,88.833 218.183,88.833 218.183,77.366 215.43,77.366 215.43,74.796 
				223.645,74.796 223.645,77.366 			"/>
			<polygon fill="#DB6639" points="226.605,88.833 226.605,74.796 233.695,74.796 233.695,77.325 229.34,77.325 229.34,80.403 
				232.339,80.403 232.339,82.677 229.34,82.677 229.34,86.197 233.695,86.197 233.695,88.833 			"/>
			<polygon fill="#DB6639" points="243.359,88.833 240.552,83.207 239.464,80.906 239.464,88.833 236.961,88.833 236.961,74.796 
				239.236,74.796 241.965,80.547 242.996,82.846 242.996,74.796 245.464,74.796 245.464,88.833 			"/>
			<polygon fill="#DB6639" points="253.906,77.366 253.906,88.833 251.175,88.833 251.175,77.366 248.425,77.366 248.425,74.796 
				256.638,74.796 256.638,77.366 			"/>
			<path fill="#DB6639" d="M264.395,88.833l-0.534-2.783h-2.638l-0.534,2.783h-2.56l2.979-14.037h3.057l2.962,14.037H264.395z
				 M262.598,78.696l-0.972,5.12h1.87L262.598,78.696z"/>
			<path fill="#DB6639" d="M274.651,88.833h-4.717V74.796h4.661c2.062,0,3.188,1.222,3.188,3.226v1.013
				c0,1.326-0.476,2.357-1.775,2.611c1.354,0.315,1.854,1.308,1.854,2.612v1.349C277.862,87.629,276.717,88.833,274.651,88.833
				 M275.188,78.295c0-0.697-0.268-1.139-0.972-1.139h-1.528v3.583h1.414c0.704,0,1.086-0.4,1.086-1.224V78.295z M275.246,84.068
				c0-0.821-0.384-1.244-1.09-1.244h-1.469v3.647h1.584c0.707,0,0.975-0.422,0.975-1.116V84.068z"/>
			<rect x="281.303" y="74.796" fill="#DB6639" width="2.73" height="14.037"/>
			<polygon fill="#DB6639" points="287.7,88.833 287.7,74.796 290.434,74.796 290.434,86.24 294.616,86.24 294.616,88.833 			"/>
			<rect x="297.6" y="74.796" fill="#DB6639" width="2.73" height="14.037"/>
			<path fill="#DB6639" d="M308.238,88.833H304V74.796h4.238c2.635,0,4.049,1.877,4.049,4.218v5.773
				C312.287,87.147,310.873,88.833,308.238,88.833 M309.558,79.075c0-1.118-0.479-1.77-1.528-1.77h-1.302v9.019h1.302
				c1.049,0,1.528-0.652,1.528-1.767V79.075z"/>
			<path fill="#DB6639" d="M320.828,88.833l-0.536-2.783h-2.637l-0.533,2.783h-2.562l2.979-14.037h3.058l2.964,14.037H320.828z
				 M319.032,78.696l-0.976,5.12h1.873L319.032,78.696z"/>
			<path fill="#DB6639" d="M330.611,88.833h-4.243V74.796h4.243c2.634,0,4.046,1.877,4.046,4.218v5.773
				C334.657,87.147,333.245,88.833,330.611,88.833 M331.926,79.075c0-1.118-0.478-1.77-1.527-1.77h-1.302v9.019h1.302
				c1.05,0,1.527-0.652,1.527-1.767V79.075z"/>
			<polygon fill="#DB6639" points="338.175,88.833 338.175,74.796 345.261,74.796 345.261,77.325 340.905,77.325 340.905,80.403 
				343.906,80.403 343.906,82.677 340.905,82.677 340.905,86.197 345.261,86.197 345.261,88.833 			"/>
		</g>
	</g>
</g>
</svg>
