<?xml version="1.0" encoding="utf-8"?>
<!-- Generator: Adobe Illustrator 16.0.0, SVG Export Plug-In . SVG Version: 6.00 Build 0)  -->
<!DOCTYPE svg PUBLIC "-//W3C//DTD SVG 1.1//EN" "http://www.w3.org/Graphics/SVG/1.1/DTD/svg11.dtd">
<svg version="1.1" id="Layer_1" xmlns="http://www.w3.org/2000/svg" xmlns:xlink="http://www.w3.org/1999/xlink" x="0px" y="0px"
	 width="40px" height="40px" viewBox="0 0 40 40" enable-background="new 0 0 40 40" xml:space="preserve">
<path id="twitter-4-icon" fill="#333333" d="M20,0C8.954,0,0,8.955,0,20c0,11.047,8.954,20,20,20s20-8.953,20-20
	C40,8.955,31.046,0,20,0z M30.058,16.555c0.294,6.523-4.572,13.799-13.185,13.799c-2.619,0-5.058-0.77-7.11-2.084
	c2.461,0.289,4.917-0.393,6.867-1.922c-2.029-0.037-3.743-1.379-4.333-3.221c0.727,0.139,1.442,0.098,2.095-0.08
	c-2.23-0.447-3.771-2.457-3.721-4.607c0.625,0.348,1.341,0.557,2.102,0.58c-2.066-1.381-2.651-4.107-1.436-6.191
	c2.288,2.805,5.706,4.652,9.561,4.846c-0.676-2.902,1.524-5.695,4.519-5.695c1.335,0,2.54,0.562,3.387,1.465
	c1.057-0.209,2.049-0.594,2.945-1.127c-0.347,1.084-1.082,1.992-2.04,2.566c0.938-0.111,1.833-0.361,2.665-0.73
	C31.751,15.084,30.964,15.9,30.058,16.555z"/>
</svg>
