<?xml version="1.0" encoding="utf-8"?>
<!-- Generator: Adobe Illustrator 16.0.0, SVG Export Plug-In . SVG Version: 6.00 Build 0)  -->
<!DOCTYPE svg PUBLIC "-//W3C//DTD SVG 1.1//EN" "http://www.w3.org/Graphics/SVG/1.1/DTD/svg11.dtd">
<svg version="1.1" id="Layer_1" xmlns="http://www.w3.org/2000/svg" xmlns:xlink="http://www.w3.org/1999/xlink" x="0px" y="0px"
	 width="40px" height="40px" viewBox="0 0 40 40" enable-background="new 0 0 40 40" xml:space="preserve">
<path id="google-plus-circle-icon" fill="#333333" d="M21.646,27.248c0,1.967-1.597,3.502-4.901,3.502
	c-2.585,0-4.451-1.637-4.451-3.602c0-1.926,2.19-3.588,4.775-3.561C19.937,23.588,21.646,25.375,21.646,27.248z M40,20
	c0,11.047-8.954,20-20,20S0,31.047,0,20C0,8.955,8.954,0,20,0S40,8.955,40,20z M23.872,27.02c0-1.814-0.678-3-2.728-4.535
	c-2.079-1.518-2.588-2.373-0.603-3.908c1.118-0.865,1.901-2.018,1.901-3.439c0-1.551-0.634-2.957-1.826-3.641h1.69l1.438-1.51
	c0,0-5.423,0-6.438,0c-4.019,0-5.989,2.408-5.989,5.059c0,2.707,1.858,4.84,5.485,4.84c-0.562,1.135-0.337,2.184,0.583,2.934
	c-6.194,0-7.521,2.719-7.521,4.812c0,2.713,3.119,4.326,6.859,4.326C21.84,31.957,23.872,29.246,23.872,27.02z M32.268,13.252h-2.97
	v-2.969h-1.484v2.969h-2.971v1.486h2.971v2.969h1.484v-2.969h2.97V13.252z M19.857,15.232c-0.3-2.277-1.784-4.146-3.518-4.199
	c-1.735-0.051-2.898,1.691-2.6,3.971c0.3,2.279,1.948,3.869,3.684,3.922C19.158,18.979,20.156,17.512,19.857,15.232z"/>
</svg>
