<?xml version="1.0" encoding="utf-8"?>
<!-- Generator: Adobe Illustrator 16.0.0, SVG Export Plug-In . SVG Version: 6.00 Build 0)  -->
<!DOCTYPE svg PUBLIC "-//W3C//DTD SVG 1.1//EN" "http://www.w3.org/Graphics/SVG/1.1/DTD/svg11.dtd">
<svg version="1.1" id="Layer_1" xmlns="http://www.w3.org/2000/svg" xmlns:xlink="http://www.w3.org/1999/xlink" x="0px" y="0px"
	 width="40px" height="40px" viewBox="0 0 40 40" enable-background="new 0 0 40 40" xml:space="preserve">
<path id="facebook-circle-icon" fill="#333333" d="M20,0C8.954,0,0,8.953,0,20c0,11.045,8.954,20,20,20c11.047,0,20-8.955,20-20
	C40,8.953,31.047,0,20,0z M25.92,11.764c0,0-2.001,0-2.796,0c-0.986,0-1.192,0.406-1.192,1.428c0,0.848,0,2.465,0,2.465h3.988
	l-0.385,4.33h-3.604V32.92h-5.165V20.043h-2.686v-4.387h2.686c0,0,0-0.631,0-3.453c0-3.238,1.733-4.932,5.577-4.932
	c0.629,0,3.576,0,3.576,0V11.764L25.92,11.764z"/>
</svg>
