<?xml version="1.0" encoding="utf-8"?>
<!-- Generator: Adobe Illustrator 16.0.0, SVG Export Plug-In . SVG Version: 6.00 Build 0)  -->
<!DOCTYPE svg PUBLIC "-//W3C//DTD SVG 1.1//EN" "http://www.w3.org/Graphics/SVG/1.1/DTD/svg11.dtd">
<svg version="1.1" id="Layer_1" xmlns="http://www.w3.org/2000/svg" xmlns:xlink="http://www.w3.org/1999/xlink" x="0px" y="0px"
	 width="121.572px" height="35px" viewBox="0 0 121.572 35" enable-background="new 0 0 121.572 35" xml:space="preserve">
<g>
	<g>
		<rect x="22.459" y="2.729" fill="#1C1C1C" width="0.014" height="0.943"/>
		<path fill="#1C1C1C" d="M22.459,1.322c-0.324,0.057-0.634,0.143-0.93,0.258s-0.586,0.248-0.873,0.4
			c-1.106,0.555-2.106,1.393-3.004,2.516c-0.609-1.104-1.42-1.943-2.432-2.516c-0.495-0.285-1.04-0.496-1.63-0.629
			C12.999,1.217,12.37,1.15,11.7,1.15c-2.535,0-4.72,1.115-6.549,3.346V1.637H0v21.027h5.58V12.451c0-2.041,0.143-3.49,0.429-4.35
			C6.333,7.207,6.829,6.539,7.497,6.1C7.859,5.852,8.226,5.676,8.598,5.57C8.97,5.467,9.374,5.414,9.814,5.414
			c0.725,0,1.286,0.143,1.687,0.428c0.438,0.307,0.744,0.744,0.917,1.316c0.114,0.326,0.195,0.812,0.243,1.459
			c0.045,0.648,0.07,1.5,0.07,2.547v11.5h5.579V12.566c0-0.992,0.038-1.85,0.114-2.576c0.076-0.725,0.189-1.316,0.346-1.773
			c0.284-0.916,0.779-1.611,1.487-2.088c0.666-0.477,1.4-0.715,2.201-0.715V1.322z"/>
	</g>
	<g>
		<path fill="#1C1C1C" d="M30.435,4.496c-0.611-1.104-1.422-1.943-2.434-2.516c-0.495-0.285-1.04-0.496-1.63-0.629
			C25.778,1.217,25.15,1.15,24.482,1.15c-3.426,0-4.72,1.115-6.55,3.346l-5.15,0.98v17.188h5.578V12.451
			c0-2.041,0.144-3.49,0.429-4.35c0.324-0.895,0.822-1.562,1.488-2.002c0.362-0.248,0.729-0.424,1.103-0.529
			c0.372-0.104,0.776-0.156,1.214-0.156c0.726,0,1.289,0.143,1.688,0.428c0.44,0.307,0.746,0.744,0.917,1.316
			c0.113,0.326,0.195,0.812,0.245,1.459c0.045,0.648,0.069,1.5,0.069,2.547v2.527h5.58c0,0,0-3.379,0-4.809
			S31.093,6.182,30.435,4.496z"/>
	</g>
	<g>
		<g>
			<path fill="#1C1C1C" d="M93.372,0.018v4.121h-8.641V0.018H93.372z"/>
		</g>
	</g>
	<path fill="#1C1C1C" d="M98.572,11.705c-0.135-0.82-0.334-1.459-0.602-1.918c-0.495-0.916-1.344-1.658-2.545-2.23
		c-0.553-0.266-1.213-0.467-1.976-0.602l-1.228,4.465c0.037,0.039,0.079,0.066,0.127,0.084c0.049,0.02,0.091,0.049,0.129,0.086
		c0.533,0.477,0.801,1.24,0.801,2.289v0.543c-1.01,0.439-2.812,0.896-5.407,1.375c-0.954,0.189-1.797,0.391-2.531,0.6
		c-0.734,0.211-1.35,0.439-1.845,0.688c-1.031,0.496-1.83,1.211-2.405,2.146c-0.554,0.877-0.829,1.926-0.829,3.146
		c0,1.812,0.621,3.289,1.86,4.434c1.222,1.164,2.919,1.746,5.094,1.746c1.201,0,2.354-0.221,3.462-0.66
		c0.457-0.209,0.899-0.447,1.328-0.715c0.431-0.266,0.854-0.59,1.273-0.973v1.889h0.658h4.178h0.543v-10.07l0.057-3.289
		C98.753,13.537,98.705,12.525,98.572,11.705z M93.279,19.143v0.059c0,0.668-0.02,1.215-0.057,1.643
		c-0.038,0.432-0.095,0.77-0.171,1.018c-0.213,0.727-0.651,1.326-1.317,1.801c-0.896,0.67-1.851,1.002-2.861,1.002
		c-0.896,0-1.631-0.285-2.202-0.857c-0.59-0.572-0.888-1.24-0.888-2.002s0.373-1.422,1.115-1.975c0.46-0.287,1.46-0.6,3.005-0.943
		c0.783-0.174,1.446-0.326,1.988-0.459c0.545-0.133,1.008-0.268,1.388-0.4V19.143z"/>
	<path fill="#1C1C1C" d="M118.595,10.072c-2.04-2.039-4.606-3.059-7.696-3.059c-2.002,0-3.843,0.447-5.519,1.344l2.23,4.434
		c0.934-0.875,2.032-1.314,3.288-1.314c1.432,0,2.625,0.543,3.578,1.631c0.974,1.086,1.457,2.641,1.457,4.662
		c0,2.1-0.483,3.674-1.457,4.721c-0.936,1.107-2.128,1.66-3.578,1.66c-1.411,0-2.602-0.553-3.573-1.66
		c-0.976-1.047-1.461-2.604-1.461-4.662c0-0.744,0.059-1.422,0.171-2.031l-4.92-2.49c-0.573,1.373-0.855,2.775-0.855,4.205
		c0,2.346,0.446,4.359,1.342,6.037c0.877,1.658,2.185,2.92,3.919,3.777c1.718,0.857,3.521,1.285,5.409,1.285
		c3.032,0,5.577-1.029,7.637-3.088c2.004-2.061,3.006-4.645,3.006-7.754C121.572,14.662,120.58,12.096,118.595,10.072z"/>
	<g>
		<path fill="#1C1C1C" d="M38.916,13.248v9.164c0,2.977-0.145,4.863-0.43,5.664c-0.133,0.383-0.33,0.73-0.586,1.045
			c-0.258,0.314-0.569,0.605-0.93,0.873c-0.744,0.514-1.593,0.771-2.548,0.771c-0.838,0-1.535-0.189-2.087-0.572
			c-0.268-0.209-0.491-0.443-0.674-0.701s-0.319-0.557-0.414-0.9c-0.038-0.096-0.068-0.221-0.087-0.371H25.44
			c0.096,1.332,0.323,2.412,0.686,3.23c0.497,1.127,1.308,1.994,2.434,2.605C29.665,34.686,30.924,35,32.336,35
			c1.41,0,2.728-0.324,3.947-0.973c1.239-0.631,2.249-1.516,3.033-2.66v3.146h5.148V13.248H38.916z"/>
	</g>
	<g>
		<rect x="55.431" y="7.115" fill="#1C1C1C" width="4.462" height="4.154"/>
		<rect x="55.431" y="17.562" fill="#1C1C1C" width="4.462" height="9.529"/>
	</g>
	<g>
		<rect x="61.126" y="11.287" fill="#E96A42" width="4.999" height="6.469"/>
	</g>
	<g>
		<rect x="49.583" y="7.115" fill="#D9B527" width="5.848" height="4.154"/>
	</g>
	<g>
		<rect x="93.372" fill="#93C43D" width="2.776" height="4.154"/>
	</g>
	<path fill="#1C1C1C" d="M80.294,26.965c-1.182-1.928-2.127-3.262-2.833-4.006c-0.686-0.744-1.571-1.432-2.659-2.061
		c2.156-0.303,3.786-1.059,4.893-2.26c1.088-1.219,1.63-2.756,1.63-4.605c0-1.432-0.362-2.729-1.087-3.891
		c-0.706-1.125-1.658-1.918-2.862-2.375c-0.608-0.23-1.391-0.396-2.346-0.5c-0.952-0.105-2.087-0.158-3.402-0.158H61.126v1.66V9.6
		v1.686c1.03,0,10.71,0.006,11.302,0.016c0.59,0.01,0.99,0.023,1.201,0.043c0.4,0.096,0.761,0.219,1.088,0.371
		c0.322,0.152,0.59,0.363,0.801,0.629c0.438,0.498,0.656,1.164,0.656,2.002c0,0.744-0.161,1.365-0.483,1.861
		c-0.346,0.479-0.822,0.82-1.432,1.031c-0.592,0.209-2.014,0.312-4.263,0.312h-0.087h-0.114h-8.669v9.541h4.979V21.5h1.002
		c1.182,0,2.021,0.096,2.519,0.285c0.493,0.154,1,0.486,1.514,1.002c0.23,0.248,0.559,0.674,0.987,1.273
		c0.431,0.6,0.968,1.387,1.617,2.361l3.632,5.377h5.952L80.294,26.965z"/>
	<rect x="25.44" y="13.691" fill="#93C43D" width="5.652" height="14.529"/>
	<path fill="#58A5CD" d="M107.021,13.6l0.589-0.809l-2.025-4.539c0,0-1.328,0.662-2.35,1.82c-1.985,2.023-2.976,4.59-2.976,7.697
		c0,0.016,0.002,0.029,0.002,0.043h5.638c0-0.016-0.003-0.027-0.003-0.043C105.896,16.02,106.289,14.648,107.021,13.6z"/>
	<path fill="#1C1C1C" d="M52.508,22.664c-0.245-0.002,0.437-0.004-0.417-0.004c-1.082,0-1.424-0.451-1.424-1.586
		c0-0.791,0.002-1.002,0-1.945V7.227V0.346l-5.112,3.037v3.723h-6.736v4.213h6.736v8.492c0,0.908,0.009,1.662,0.03,2.262
		c0.021,0.6,0.051,1.043,0.093,1.332c0.165,0.889,0.404,1.561,0.714,2.016c0.349,0.475,0.897,0.889,1.642,1.24
		c0.807,0.287,1.652,0.432,2.541,0.432c0.751,0,1.076,0,1.934,0V22.664z"/>
	<path fill="#D9B527" d="M92.34,6.676c-0.656-0.109-1.334-0.178-2.05-0.178c-0.066,0-2.116,0.01-2.183,0.012v4.471
		c0.068-0.004,2.116-0.02,2.183-0.02c0.302,0,0.454,0.086,0.867,0.086c0.416,0,1.065,0.373,1.065,0.373l1.228-4.465L92.34,6.676z"/>
</g>
</svg>
