<?xml version="1.0" encoding="utf-8"?>
<!-- Generator: Adobe Illustrator 16.0.0, SVG Export Plug-In . SVG Version: 6.00 Build 0)  -->
<!DOCTYPE svg PUBLIC "-//W3C//DTD SVG 1.1//EN" "http://www.w3.org/Graphics/SVG/1.1/DTD/svg11.dtd">
<svg version="1.1" id="Layer_1" xmlns="http://www.w3.org/2000/svg" xmlns:xlink="http://www.w3.org/1999/xlink" x="0px" y="0px"
	 width="1130px" height="362px" viewBox="0 0 1130 362" enable-background="new 0 0 1130 362" xml:space="preserve">
<g>
	<g>
		<g>
			<path fill="#FFFFFF" d="M588.201,175.688l4.339-0.352c2.062-0.136,3.127-0.975,3.127-3.388v-56.054l-6.854-0.352v-10.24h21.694
				l34.11,55.329h0.237v-44.737l-7.964-0.352v-10.24h29.421v9.754l-4.339,0.362c-1.802,0.124-2.889,1.2-2.889,3.738v66.284h-14.116
				l-34.824-56.168h-0.249v45.564l7.84,0.362v10.241h-29.534V175.688z"/>
			<path fill="#FFFFFF" d="M737.184,185.441h-19.52v-7.828c-4.226,6.038-11.566,9.402-19.53,9.402
				c-12.054,0-18.682-6.649-18.682-20.845v-27.857c0-2.537-0.963-3.239-3.013-3.364l-3.863-0.237v-9.913h21.219v38.234
				c0,7.353,1.2,12.903,8.927,12.903c8.429,0,12.892-5.676,12.892-11.94v-25.433c0-2.674-0.725-3.489-3.036-3.614l-3.829-0.237
				v-9.913h21.207v47.274c0,2.651,0.726,3.263,3.014,3.501l4.215,0.362V185.441z M707.888,90.723l5.675,2.64
				c4.951,2.276,3.954,6.14,0.487,9.516l-15.43,14.942l-4.712-3.977L707.888,90.723z"/>
			<path fill="#FFFFFF" d="M788.525,170.861l5.188,9.278c-4.689,3.862-12.054,7.001-20.969,7.001
				c-17.707,0-28.197-11.204-28.197-31.222c0-24.47,15.067-32.91,28.684-32.91c7.229,0,13.028,1.79,18.806,4.951v15.656
				l-11.102,0.85v-5.778c0-2.3-0.352-3.376-2.526-4.112c-1.438-0.476-2.9-0.725-4.701-0.725c-9.63,0-14.592,7.239-14.592,20.618
				c0,13.164,4.826,21.569,15.565,21.569C779.36,176.038,783.609,174.475,788.525,170.861z"/>
			<path fill="#FFFFFF" d="M822.896,175.438l6.865,0.374v9.63h-28.684v-9.131l3.987-0.374c2.152-0.249,3.489-0.963,3.489-3.863
				v-59.43c0-2.176-1.224-2.753-3.014-2.889l-4.214-0.238V99.502h21.569V175.438z"/>
			<path fill="#FFFFFF" d="M887.129,139.764c0,18.557-20.119,21.684-34.349,21.819c0.499,7.816,4.6,14.229,14.841,14.229
				c7.114,0,12.28-3.251,15.181-5.312l4.576,9.776c-1.926,1.677-9.878,6.74-21.229,6.74c-20.482,0-28.435-12.541-28.435-30.508
				c0-17.82,10.014-33.499,29.771-33.499C879.313,123.009,887.129,129.036,887.129,139.764z M866.647,133.25
				c-9.651,0-14.002,9.289-14.342,18.217c8.927-0.137,21.57-2.176,21.57-11.465C873.875,135.55,870.975,133.25,866.647,133.25z"/>
			<path fill="#FFFFFF" d="M923.042,123.009c8.904,0,26.871,2.775,26.871,30.508c0,23.134-12.892,33.726-28.798,33.726
				c-16.131,0-26.758-10.354-26.758-32.185C894.357,130.01,910.625,123.009,923.042,123.009z M935.208,155.442
				c0-13.503-3.263-21.83-12.893-21.83c-9.538,0-13.367,8.202-13.367,19.758c0,11.227,1.563,23.28,13.118,23.28
				C931.469,176.65,935.208,167.973,935.208,155.442z"/>
		</g>
		<g>
			<path fill="#FFFFFF" d="M589.458,276.149l3.987-0.374c2.039-0.249,3.489-0.974,3.489-3.376v-56.043l-6.865-0.373v-10.241h33.034
				c23.009,0,37.611,12.189,37.611,37.248c0,31.573-17.616,42.913-37.021,42.913h-34.235V276.149z M611.64,274.325h12.291
				c13.516,0,21.933-9.878,21.933-29.159c0-21.694-10.479-27.732-23.484-27.732H611.64V274.325z"/>
			<path fill="#FFFFFF" d="M691.314,275.889l6.865,0.362v9.652h-28.673v-9.153l3.977-0.362c2.175-0.238,3.5-0.963,3.5-3.875v-33.498
				c0-2.651-0.736-3.501-3.024-3.501l-4.214-0.238v-10.003h21.569V275.889z M682.897,199.488c5.29,0,9.142,3.954,9.142,9.018
				c0,5.075-3.852,8.814-9.277,8.814c-5.54,0-9.165-3.739-9.165-8.814C673.596,203.442,677.221,199.488,682.897,199.488z"/>
			<path fill="#FFFFFF" d="M708.307,307.711v-16.755l11.453-0.975v5.801c0,2.288,0.601,3.489,2.775,4.327
				c2.277,0.861,4.939,1.224,8.564,1.224c11.068,0,13.991-7.613,13.991-17.729v-6.627c-4.112,4.814-10.128,6.763-16.053,6.763
				c-17.594,0-23.62-14.489-23.62-28.23c0-21.819,13.141-32.037,31.346-32.037c5.778,0,15.181,1.438,22.295,4.44v44.726
				c0,4.226,0.113,8.791-0.237,13.13c-1.45,17.718-9.777,25.92-27.846,25.92C723.375,311.688,713.371,310.237,708.307,307.711z
				 M745.091,235.4c-2.787-0.963-6.276-1.461-9.663-1.461c-10.004,0-15.17,7.952-15.17,20.142c0,8.19,1.314,19.044,12.519,19.044
				c6.763,0,12.314-4.452,12.314-11.816V235.4z"/>
			<path fill="#FFFFFF" d="M792.581,275.889l6.865,0.362v9.652h-28.684v-9.153l3.965-0.362c2.175-0.238,3.5-0.963,3.5-3.875v-33.498
				c0-2.651-0.725-3.501-3.002-3.501l-4.236-0.238v-10.003h21.592V275.889z M784.152,199.488c5.302,0,9.154,3.954,9.154,9.018
				c0,5.075-3.853,8.814-9.29,8.814c-5.551,0-9.153-3.739-9.153-8.814C774.863,203.442,778.465,199.488,784.152,199.488z"/>
			<path fill="#FFFFFF" d="M827.631,212.482v12.79h16.042l-1.201,10.128h-14.841v31.687c0,7.352,2.9,9.527,7.84,9.527
				c3.263,0,6.299-1.326,8.202-2.526l3.625,9.278c-3.625,2.537-9.652,4.226-15.294,4.226c-18.828,0-18.715-11.578-18.715-20.019
				V235.4h-8.564l1.224-8.803c8.429-0.736,11.328-7.238,13.844-14.115H827.631z"/>
			<path fill="#FFFFFF" d="M905.98,272.513c0,2.651,0.726,3.376,3.014,3.501l3.852,0.237v9.652h-19.168v-6.989l-0.362-0.125
				c-3.716,5.415-9.855,8.678-16.472,8.678c-17.016,0-24.13-12.042-24.13-29.284c0-21.219,10.15-34.711,31.833-34.711
				c3.965,0,12.756,0.963,21.434,4.214V272.513z M892,235.514c-1.812-0.85-5.528-1.574-9.267-1.574
				c-11.465,0-15.294,10.728-15.294,23.756c0,10.003,2.402,19.52,12.53,19.52c7.454,0,12.03-5.291,12.03-10.491V235.514z"/>
			<path fill="#FFFFFF" d="M941.779,275.889l6.865,0.362v9.652h-28.685v-9.153l3.965-0.362c2.176-0.238,3.513-0.963,3.513-3.875
				v-59.407c0-2.187-1.224-2.775-3.014-2.9l-4.215-0.237v-10.026h21.57V275.889z"/>
		</g>
	</g>
	<g>
		<path fill="#FFFFFF" d="M354.921,21.901c-87.865,0-159.1,71.234-159.1,159.11c0,87.865,71.234,159.1,159.1,159.1
			s159.1-71.234,159.1-159.1C514.021,93.136,442.787,21.901,354.921,21.901z M278,294.445c0,0-8.645,6.174-12.96-1.847
			c-4.316-8.032,0.85,0.771-11.477-22.068c0,0-4.554-9.018-1.246-17.276c4.939-12.348,11.079-40.737,16.109-54.049
			c4.181-11.067,7.93-2.729,7.93-2.729s6.525,49.551,19.169,65.423C295.526,261.898,268.745,267.902,278,294.445z M321.672,289.698
			c-8.791,0-11.103-5.709-12.19-7.646c-1.688-3.014-3.919-10.729-3.919-10.729c-1.359-5.29,4.825-4.814,4.825-4.814
			s8.202,0,10.253,0c2.436,0,4.565,5.472,7.046,11.103c2.64,5.958,5.585,12.087,5.585,12.087H321.672z M363.452,296.45
			c-1.982,2.459-3.263,3.988-5.098,4.112h-5.506c-1.857-0.091-3.229-1.54-5.188-4.112c-5.573-7.353-8.36-15.361-14.036-25.92
			c0,0-3.931-9.018-1.064-17.276c4.271-12.348,15.713-40.737,20.062-54.049c1.371-4.146,1.699-5.562,2.787-5.732
			c1.11,0.159,1.722,1.587,3.081,5.732c4.351,13.312,15.804,41.701,20.074,54.049c2.855,8.259-1.064,17.276-1.064,17.276
			C372.606,281.089,369.83,288.565,363.452,296.45z M405.651,271.323c0,0-2.231,7.715-3.92,10.729
			c-1.099,1.938-3.398,7.646-12.178,7.646h-11.601c0,0,2.945-6.129,5.573-12.087c2.493-5.631,4.622-11.103,7.059-11.103
			c2.05,0,10.252,0,10.252,0S407.022,266.033,405.651,271.323z M402.332,258.193h-14.795c0,0,0-2.48-2.47-12.348
			c-2.47-9.879-19.803-53.698-19.803-53.698s-2.197-4.35-5.731-6.378c-3.456-0.85-3.977-0.771-3.977-0.771s-1.009,0.046-3.965,0.771
			c-3.546,2.028-5.732,6.378-5.732,6.378s-17.503,43.819-19.973,53.698c-2.47,9.867-2.47,12.348-2.47,12.348H308.78
			c0,0-7.397,0.612-10.49-6.797c-3.081-7.409-23.45-72.82-7.397-123.437c16.041-50.605,49.993-78.383,54.933-82.088
			c4.101-3.115,6.819-4.905,8.858-5.233c0.046-0.012,0.057-0.022,0.091-0.034c0.249-0.045,0.477-0.079,0.726-0.102
			c0.022,0,0.045,0.011,0.045,0.011c0.034,0,0.068-0.011,0.068-0.011c0.249,0.022,0.487,0.057,0.725,0.102
			c0.046,0.012,0.068,0.022,0.091,0.034c2.039,0.328,4.78,2.118,8.87,5.233c4.939,3.705,38.88,31.482,54.933,82.088
			c16.041,50.616-4.327,116.027-7.409,123.437C409.741,258.806,402.332,258.193,402.332,258.193z M456.279,270.53
			c-12.349,22.839-7.16,14.036-11.487,22.068c-4.327,8.021-12.96,1.847-12.96,1.847c9.267-26.543-17.514-32.547-17.514-32.547
			c12.62-15.872,19.156-65.423,19.156-65.423s3.75-8.338,7.931,2.729c5.041,13.312,11.17,41.701,16.098,54.049
			C460.81,261.513,456.279,270.53,456.279,270.53z"/>
		<path fill="#FFFFFF" d="M355,71.656c-7.408,0-13.436,6.026-13.436,13.425c0,2.673,0.805,5.154,2.152,7.25l-0.577,0.668
			c-5.291,6.062-13.107,15.124-18.727,27.631c-0.238-0.022-0.476-0.079-0.736-0.079c-6.072,0-11.022,4.939-11.022,11.012
			c0,3.579,1.778,6.808,4.588,8.848c-3.886,10.07-6.231,19.972-7.284,30.666c-4.045,1.11-7.047,4.792-7.047,9.188
			c0,5.279,4.294,9.573,9.562,9.573c5.279,0,9.562-4.294,9.562-9.573c0-4.123-2.629-7.612-6.299-8.949
			c1.02-10.037,3.24-19.36,6.888-28.832c0.362,0.034,0.702,0.103,1.042,0.103h0.012c6.083,0,11.022-4.951,11.022-11.022
			c0-3.728-1.881-7.013-4.724-9.018c5.256-11.465,12.541-20.041,17.525-25.762l0.317-0.374c2.084,1.325,4.531,2.107,7.182,2.107
			c7.397,0,13.413-6.016,13.413-13.436C368.414,77.683,362.398,71.656,355,71.656z M316.268,180.264
			c0,2.096-1.699,3.795-3.795,3.795c-2.085,0-3.795-1.699-3.795-3.795c0-2.084,1.71-3.795,3.795-3.795
			C314.569,176.469,316.268,178.18,316.268,180.264z M321.626,136.399c-1.938-0.827-3.194-2.719-3.194-4.837
			c0-2.89,2.356-5.245,5.245-5.245s5.245,2.355,5.245,5.245C328.922,135.176,324.901,137.771,321.626,136.399z M355,92.75
			c-4.236,0-7.669-3.443-7.669-7.669c0-4.215,3.433-7.647,7.669-7.647c4.215,0,7.658,3.433,7.658,7.647
			C362.659,89.307,359.215,92.75,355,92.75z"/>
		<path fill="#FFFFFF" d="M354.921,6.154c-96.406,0-174.835,78.439-174.835,174.857c0,96.406,78.429,174.834,174.835,174.834
			c96.407,0,174.835-78.428,174.835-174.834C529.756,84.594,451.329,6.154,354.921,6.154z M354.921,350.08
			c-93.224,0-169.068-75.845-169.068-169.068c0-93.234,75.845-169.08,169.068-169.08s169.08,75.846,169.08,169.08
			C524.001,274.235,448.145,350.08,354.921,350.08z"/>
	</g>
</g>
</svg>
