<?xml version="1.0" encoding="utf-8"?>
<!-- Generator: Adobe Illustrator 16.0.0, SVG Export Plug-In . SVG Version: 6.00 Build 0)  -->
<!DOCTYPE svg PUBLIC "-//W3C//DTD SVG 1.1//EN" "http://www.w3.org/Graphics/SVG/1.1/DTD/svg11.dtd">
<svg version="1.1" id="Layer_1" xmlns="http://www.w3.org/2000/svg" xmlns:xlink="http://www.w3.org/1999/xlink" x="0px" y="0px"
	 width="118.182px" height="114.438px" viewBox="0 0 118.182 114.438" enable-background="new 0 0 118.182 114.438"
	 xml:space="preserve">
<rect x="-165.807" y="-158.233" display="none" fill-rule="evenodd" clip-rule="evenodd" fill="#231F20" stroke="#231F20" stroke-width="0.216" stroke-miterlimit="22.9256" width="489.336" height="169.828"/>
<path fill="#F1F1F1" d="M59.091,0C26.456,0,0,26.453,0,59.09c0,25.346,15.96,46.955,38.375,55.348l13.445-35.922
	c-7.874-2.949-13.49-10.52-13.49-19.426c0-11.467,9.296-20.76,20.762-20.76c11.466,0,20.761,9.293,20.761,20.76
	c0,8.906-5.615,16.477-13.49,19.426l13.445,35.922c22.414-8.393,38.375-30.002,38.375-55.348C118.182,26.453,91.725,0,59.091,0z"/>
</svg>
